<?xml version="1.0"?>
<svg xmlns="http://www.w3.org/2000/svg" width="400" height="200" version="1.0" id="ezcGraph"><defs/><g id="ezcGraphChart" color-rendering="optimizeQuality" shape-rendering="geometricPrecision" text-rendering="optimizeLegibility"><path d=" M 0.0000,200.0000 L 0.0000,0.0000 L 400.0000,0.0000 L 400.0000,200.0000 L 0.0000,200.0000 z " style="fill: #ffffff; fill-opacity: 0.00; stroke: none;" id="ezcGraphPolygon_1"/><path d=" M 0.0000,20.0000 L 0.0000,0.0000 L 400.0000,0.0000 L 400.0000,20.0000 L 0.0000,20.0000 z " style="fill: #000000; fill-opacity: 0.00; stroke: none;" id="ezcGraphPolygon_2"/><path d=" M 0.0000,200.0000 L 0.0000,20.0000 L 80.0000,20.0000 L 80.0000,200.0000 L 0.0000,200.0000 z " style="fill: #000000; fill-opacity: 0.00; stroke: none;" id="ezcGraphPolygon_4"/><ellipse cx="9" cy="29" rx="7" ry="7" style="fill: #c90062; fill-opacity: 1.00; stroke: none; cursor: pointer;" id="ezcGraphCircle_5" onclick="top.location = '/detailedData.php?browser=Mozilla'"/><ellipse cx="9" cy="47" rx="7" ry="7" style="fill: #e05206; fill-opacity: 1.00; stroke: none; cursor: pointer;" id="ezcGraphCircle_7" onclick="top.location = '/detailedData.php?browser=Explorer'"/><ellipse cx="9" cy="65" rx="7" ry="7" style="fill: #f0ab00; fill-opacity: 1.00; stroke: none; cursor: pointer;" id="ezcGraphCircle_9" onclick="top.location = '/detailedData.php?browser=Opera'"/><ellipse cx="9" cy="83" rx="7" ry="7" style="fill: #d4ba00; fill-opacity: 1.00; stroke: none; cursor: pointer;" id="ezcGraphCircle_11" onclick="top.location = '/detailedData.php?browser=Safari'"/><ellipse cx="9" cy="101" rx="7" ry="7" style="fill: #9c9a00; fill-opacity: 1.00; stroke: none; cursor: pointer;" id="ezcGraphCircle_13" onclick="top.location = '/detailedData.php?browser=Konqueror'"/><path d="M 240.00,110.00 L 312.00,110.00 A 72.00,72.00 0 1,1 178.24,72.99 z" style="fill: #c90062; fill-opacity: 1.00; stroke: none; cursor: pointer;" id="ezcGraphCircleSector_15" onclick="top.location = '/detailedData.php?browser=Mozilla'"/><path d="M 240.00,110.00 L 312.00,110.00 A 72.00,72.00 0 1,1 178.24,72.99 z" style="fill: none; stroke: #650031; stroke-width: 1; stroke-opacity: 1.00; stroke-linecap: round; stroke-linejoin: round;" id="ezcGraphCircleSector_16"/><path d="M 240.00,110.00 L 178.24,72.99 A 72.00,72.00 0 0,1 303.22,75.55 z" style="fill: #e05206; fill-opacity: 1.00; stroke: none; cursor: pointer;" id="ezcGraphCircleSector_17" onclick="top.location = '/detailedData.php?browser=Explorer'"/><path d="M 240.00,110.00 L 178.24,72.99 A 72.00,72.00 0 0,1 303.22,75.55 z" style="fill: none; stroke: #702903; stroke-width: 1; stroke-opacity: 1.00; stroke-linecap: round; stroke-linejoin: round;" id="ezcGraphCircleSector_18"/><path d="M 240.00,110.00 L 303.22,75.55 A 72.00,72.00 0 0,1 310.31,94.51 z" style="fill: #f0ab00; fill-opacity: 1.00; stroke: none; cursor: pointer;" id="ezcGraphCircleSector_19" onclick="top.location = '/detailedData.php?browser=Opera'"/><path d="M 240.00,110.00 L 303.22,75.55 A 72.00,72.00 0 0,1 310.31,94.51 z" style="fill: none; stroke: #785600; stroke-width: 1; stroke-opacity: 1.00; stroke-linecap: round; stroke-linejoin: round;" id="ezcGraphCircleSector_20"/><path d="M 240.00,110.00 L 310.31,94.51 A 72.00,72.00 0 0,1 311.70,103.44 z" style="fill: #d4ba00; fill-opacity: 1.00; stroke: none; cursor: pointer;" id="ezcGraphCircleSector_21" onclick="top.location = '/detailedData.php?browser=Safari'"/><path d="M 240.00,110.00 L 310.31,94.51 A 72.00,72.00 0 0,1 311.70,103.44 z" style="fill: none; stroke: #6a5d00; stroke-width: 1; stroke-opacity: 1.00; stroke-linecap: round; stroke-linejoin: round;" id="ezcGraphCircleSector_22"/><path d="M 240.00,110.00 L 311.70,103.44 A 72.00,72.00 0 0,1 312.00,110.00 z" style="fill: #9c9a00; fill-opacity: 1.00; stroke: none; cursor: pointer;" id="ezcGraphCircleSector_23" onclick="top.location = '/detailedData.php?browser=Konqueror'"/><path d="M 240.00,110.00 L 311.70,103.44 A 72.00,72.00 0 0,1 312.00,110.00 z" style="fill: none; stroke: #4e4d00; stroke-width: 1; stroke-opacity: 1.00; stroke-linecap: round; stroke-linejoin: round;" id="ezcGraphCircleSector_24"/><path d=" M 225.7767,161.4018 L 212.2975,187.0000" style="fill: none; stroke: #000000; stroke-width: 1; stroke-opacity: 1.00; stroke-linecap: round; stroke-linejoin: round;" id="ezcGraphLine_25"/><ellipse cx="225.77671190812" cy="161.40177545864" rx="3" ry="3" style="fill: #000000; fill-opacity: 1.00; stroke: none;" id="ezcGraphCircle_26"/><ellipse cx="212.29746558579" cy="187" rx="3" ry="3" style="fill: #000000; fill-opacity: 1.00; stroke: none;" id="ezcGraphCircle_27"/><path d=" M 241.0940,56.6779 L 246.0000,30.0000" style="fill: none; stroke: #000000; stroke-width: 1; stroke-opacity: 1.00; stroke-linecap: round; stroke-linejoin: round;" id="ezcGraphLine_29"/><ellipse cx="241.09399109615" cy="56.677888002012" rx="3" ry="3" style="fill: #000000; fill-opacity: 1.00; stroke: none;" id="ezcGraphCircle_30"/><ellipse cx="246" cy="30" rx="3" ry="3" style="fill: #000000; fill-opacity: 1.00; stroke: none;" id="ezcGraphCircle_31"/><path d=" M 289.9542,91.3177 L 320.5587,81.0000" style="fill: none; stroke: #000000; stroke-width: 1; stroke-opacity: 1.00; stroke-linecap: round; stroke-linejoin: round;" id="ezcGraphLine_33"/><ellipse cx="289.95415099231" cy="91.317729177593" rx="3" ry="3" style="fill: #000000; fill-opacity: 1.00; stroke: none;" id="ezcGraphCircle_34"/><ellipse cx="320.55870170543" cy="81" rx="3" ry="3" style="fill: #000000; fill-opacity: 1.00; stroke: none;" id="ezcGraphCircle_35"/><path d=" M 292.7014,101.8141 L 325.2401,99.0000" style="fill: none; stroke: #000000; stroke-width: 1; stroke-opacity: 1.00; stroke-linecap: round; stroke-linejoin: round;" id="ezcGraphLine_37"/><ellipse cx="292.7013858335" cy="101.81413561844" rx="3" ry="3" style="fill: #000000; fill-opacity: 1.00; stroke: none;" id="ezcGraphCircle_38"/><ellipse cx="325.24014134263" cy="99" rx="3" ry="3" style="fill: #000000; fill-opacity: 1.00; stroke: none;" id="ezcGraphCircle_39"/><path d=" M 293.2778,107.5662 L 325.6932,117.0000" style="fill: none; stroke: #000000; stroke-width: 1; stroke-opacity: 1.00; stroke-linecap: round; stroke-linejoin: round;" id="ezcGraphLine_41"/><ellipse cx="293.27777082731" cy="107.5661593895" rx="3" ry="3" style="fill: #000000; fill-opacity: 1.00; stroke: none;" id="ezcGraphCircle_42"/><ellipse cx="325.69316156359" cy="117" rx="3" ry="3" style="fill: #000000; fill-opacity: 1.00; stroke: none;" id="ezcGraphCircle_43"/><text id="ezcGraphTextBox_3" x="118.91" text-length="162.18px" y="16.3" style="font-size: 18px; font-family: sans-serif; fill: #1e1e1e; fill-opacity: 1.00; stroke: none;">Access statistics</text><text id="ezcGraphTextBox_6" x="17" text-length="44.52px" y="33.2" style="font-size: 12px; font-family: sans-serif; fill: #1e1e1e; fill-opacity: 1.00; stroke: none; cursor: pointer;" onclick="top.location = '/detailedData.php?browser=Mozilla'">Mozilla</text><text id="ezcGraphTextBox_8" x="17" text-length="50.88px" y="51.2" style="font-size: 12px; font-family: sans-serif; fill: #1e1e1e; fill-opacity: 1.00; stroke: none; cursor: pointer;" onclick="top.location = '/detailedData.php?browser=Explorer'">Explorer</text><text id="ezcGraphTextBox_10" x="17" text-length="31.8px" y="69.2" style="font-size: 12px; font-family: sans-serif; fill: #1e1e1e; fill-opacity: 1.00; stroke: none; cursor: pointer;" onclick="top.location = '/detailedData.php?browser=Opera'">Opera</text><text id="ezcGraphTextBox_12" x="17" text-length="38.16px" y="87.2" style="font-size: 12px; font-family: sans-serif; fill: #1e1e1e; fill-opacity: 1.00; stroke: none; cursor: pointer;" onclick="top.location = '/detailedData.php?browser=Safari'">Safari</text><text id="ezcGraphTextBox_14" x="17" text-length="57.24px" y="105.2" style="font-size: 12px; font-family: sans-serif; fill: #1e1e1e; fill-opacity: 1.00; stroke: none; cursor: pointer;" onclick="top.location = '/detailedData.php?browser=Konqueror'">Konqueror</text><text id="ezcGraphTextBox_28" x="113.01746558579" text-length="93.28px" y="189.8" style="font-size: 8px; font-family: sans-serif; fill: #1e1e1e; fill-opacity: 1.00; stroke: none; cursor: pointer;" onclick="top.location = '/detailedData.php?browser=Mozilla'">Mozilla: 19113 (58.6%)</text><text id="ezcGraphTextBox_32" x="252" text-length="97.52px" y="32.8" style="font-size: 8px; font-family: sans-serif; fill: #1e1e1e; fill-opacity: 1.00; stroke: none; cursor: pointer;" onclick="top.location = '/detailedData.php?browser=Explorer'">Explorer: 10917 (33.5%)</text><text id="ezcGraphTextBox_36" x="326.55870170543" text-length="46.64px" y="79.75" style="font-size: 8px; font-family: sans-serif; fill: #1e1e1e; fill-opacity: 1.00; stroke: none; cursor: pointer;" onclick="top.location = '/detailedData.php?browser=Opera'">Opera: 1464</text><text id="ezcGraphTextBox_36" x="326.55870170543" text-length="25.44px" y="88.55" style="font-size: 8px; font-family: sans-serif; fill: #1e1e1e; fill-opacity: 1.00; stroke: none;">(4.5%)</text><text id="ezcGraphTextBox_40" x="331.24014134263" text-length="46.64px" y="97.75" style="font-size: 8px; font-family: sans-serif; fill: #1e1e1e; fill-opacity: 1.00; stroke: none; cursor: pointer;" onclick="top.location = '/detailedData.php?browser=Safari'">Safari: 652</text><text id="ezcGraphTextBox_40" x="331.24014134263" text-length="25.44px" y="106.55" style="font-size: 8px; font-family: sans-serif; fill: #1e1e1e; fill-opacity: 1.00; stroke: none;">(2.0%)</text><text id="ezcGraphTextBox_44" x="331.69316156359" text-length="59.36px" y="115.75" style="font-size: 8px; font-family: sans-serif; fill: #1e1e1e; fill-opacity: 1.00; stroke: none; cursor: pointer;" onclick="top.location = '/detailedData.php?browser=Konqueror'">Konqueror: 474</text><text id="ezcGraphTextBox_44" x="331.69316156359" text-length="25.44px" y="124.55" style="font-size: 8px; font-family: sans-serif; fill: #1e1e1e; fill-opacity: 1.00; stroke: none;">(1.5%)</text></g></svg>
