<?xml version="1.0"?>
<svg xmlns="http://www.w3.org/2000/svg" width="400" height="200" version="1.0" id="ezcGraph"><defs/><g id="ezcGraphChart" color-rendering="optimizeQuality" shape-rendering="geometricPrecision" text-rendering="optimizeLegibility"><path d=" M 0.0000,200.0000 L 0.0000,0.0000 L 400.0000,0.0000 L 400.0000,200.0000 L 0.0000,200.0000 z " style="fill: #ffffff; fill-opacity: 0.00; stroke: none;" id="ezcGraphPolygon_1"/><path d=" M 0.0000,20.0000 L 0.0000,0.0000 L 400.0000,0.0000 L 400.0000,20.0000 L 0.0000,20.0000 z " style="fill: #000000; fill-opacity: 0.00; stroke: none;" id="ezcGraphPolygon_2"/><path d=" M 0.0000,200.0000 L 0.0000,20.0000 L 80.0000,20.0000 L 80.0000,200.0000 L 0.0000,200.0000 z " style="fill: #000000; fill-opacity: 0.00; stroke: none;" id="ezcGraphPolygon_4"/><ellipse cx="9" cy="29" rx="7" ry="7" style="fill: #c90062; fill-opacity: 1.00; stroke: none; cursor: crosshair;" id="ezcGraphCircle_5" onclick="top.location = 'http://example.org/mozilla'"/><ellipse cx="9" cy="47" rx="7" ry="7" style="fill: #e05206; fill-opacity: 1.00; stroke: none; cursor: crosshair;" id="ezcGraphCircle_7" onclick="top.location = 'http://example.org/'"/><ellipse cx="9" cy="65" rx="7" ry="7" style="fill: #f0ab00; fill-opacity: 1.00; stroke: none; cursor: crosshair;" id="ezcGraphCircle_9" onclick="top.location = 'http://example.org/'"/><ellipse cx="9" cy="83" rx="7" ry="7" style="fill: #d4ba00; fill-opacity: 1.00; stroke: none; cursor: crosshair;" id="ezcGraphCircle_11" onclick="top.location = 'http://example.org/'"/><ellipse cx="9" cy="101" rx="7" ry="7" style="fill: #9c9a00; fill-opacity: 1.00; stroke: none; cursor: crosshair;" id="ezcGraphCircle_13" onclick="top.location = 'http://example.org/'"/><path d="M 240.00,110.00 L 312.00,110.00 A 72.00,72.00 0 1,1 178.24,72.99 z" style="fill: #c90062; fill-opacity: 1.00; stroke: none; cursor: crosshair;" id="ezcGraphCircleSector_15" onclick="top.location = 'http://example.org/mozilla'"/><path d="M 239.86,110.50 L 311.50,110.50 A 71.50,71.50 0 1,1 178.41,73.67 z" style="fill: none; stroke: #650031; stroke-width: 1; stroke-opacity: 1.00; stroke-linecap: round; stroke-linejoin: round;" id="ezcGraphCircleSector_16"/><path d="M 240.00,110.00 L 178.24,72.99 A 72.00,72.00 0 0,1 303.22,75.55 z" style="fill: #e05206; fill-opacity: 1.00; stroke: none; cursor: crosshair;" id="ezcGraphCircleSector_17" onclick="top.location = 'http://example.org/'"/><path d="M 240.01,109.42 L 178.93,72.82 A 71.50,71.50 0 0,1 302.55,75.35 z" style="fill: none; stroke: #702903; stroke-width: 1; stroke-opacity: 1.00; stroke-linecap: round; stroke-linejoin: round;" id="ezcGraphCircleSector_18"/><path d="M 240.00,110.00 L 303.22,75.55 A 72.00,72.00 0 0,1 310.31,94.51 z" style="fill: #f0ab00; fill-opacity: 1.00; stroke: none; cursor: crosshair;" id="ezcGraphCircleSector_19" onclick="top.location = 'http://example.org/'"/><path d="M 243.33,108.75 L 303.02,76.23 A 71.50,71.50 0 0,1 309.72,94.13 z" style="fill: none; stroke: #785600; stroke-width: 1; stroke-opacity: 1.00; stroke-linecap: round; stroke-linejoin: round;" id="ezcGraphCircleSector_20"/><path d="M 240.00,110.00 L 310.31,94.51 A 72.00,72.00 0 0,1 311.70,103.44 z" style="fill: #d4ba00; fill-opacity: 1.00; stroke: none; cursor: crosshair;" id="ezcGraphCircleSector_21" onclick="top.location = 'http://example.org/'"/><path d="M 247.87,108.78 L 309.93,95.10 A 71.50,71.50 0 0,1 311.16,102.98 z" style="fill: none; stroke: #6a5d00; stroke-width: 1; stroke-opacity: 1.00; stroke-linecap: round; stroke-linejoin: round;" id="ezcGraphCircleSector_22"/><path d="M 240.00,110.00 L 311.70,103.44 A 72.00,72.00 0 0,1 312.00,110.00 z" style="fill: #9c9a00; fill-opacity: 1.00; stroke: none; cursor: crosshair;" id="ezcGraphCircleSector_23" onclick="top.location = 'http://example.org/'"/><path d="M 250.95,109.50 L 311.25,103.98 A 71.50,71.50 0 0,1 311.50,109.50 z" style="fill: none; stroke: #4e4d00; stroke-width: 1; stroke-opacity: 1.00; stroke-linecap: round; stroke-linejoin: round;" id="ezcGraphCircleSector_24"/><path d=" M 225.7767,161.4018 L 212.2975,187.0000" style="fill: none; stroke: #000000; stroke-width: 1; stroke-opacity: 1.00; stroke-linecap: round; stroke-linejoin: round;" id="ezcGraphLine_25"/><ellipse cx="225.7767" cy="161.4018" rx="3" ry="3" style="fill: #000000; fill-opacity: 1.00; stroke: none;" id="ezcGraphCircle_26"/><ellipse cx="212.2975" cy="187" rx="3" ry="3" style="fill: #000000; fill-opacity: 1.00; stroke: none;" id="ezcGraphCircle_27"/><path d=" M 241.0940,56.6779 L 246.0000,30.0000" style="fill: none; stroke: #000000; stroke-width: 1; stroke-opacity: 1.00; stroke-linecap: round; stroke-linejoin: round;" id="ezcGraphLine_29"/><ellipse cx="241.094" cy="56.6779" rx="3" ry="3" style="fill: #000000; fill-opacity: 1.00; stroke: none;" id="ezcGraphCircle_30"/><ellipse cx="246" cy="30" rx="3" ry="3" style="fill: #000000; fill-opacity: 1.00; stroke: none;" id="ezcGraphCircle_31"/><path d=" M 289.9542,91.3177 L 320.5587,81.0000" style="fill: none; stroke: #000000; stroke-width: 1; stroke-opacity: 1.00; stroke-linecap: round; stroke-linejoin: round;" id="ezcGraphLine_33"/><ellipse cx="289.9542" cy="91.3177" rx="3" ry="3" style="fill: #000000; fill-opacity: 1.00; stroke: none;" id="ezcGraphCircle_34"/><ellipse cx="320.5587" cy="81" rx="3" ry="3" style="fill: #000000; fill-opacity: 1.00; stroke: none;" id="ezcGraphCircle_35"/><path d=" M 292.7014,101.8141 L 325.2401,99.0000" style="fill: none; stroke: #000000; stroke-width: 1; stroke-opacity: 1.00; stroke-linecap: round; stroke-linejoin: round;" id="ezcGraphLine_37"/><ellipse cx="292.7014" cy="101.8141" rx="3" ry="3" style="fill: #000000; fill-opacity: 1.00; stroke: none;" id="ezcGraphCircle_38"/><ellipse cx="325.2401" cy="99" rx="3" ry="3" style="fill: #000000; fill-opacity: 1.00; stroke: none;" id="ezcGraphCircle_39"/><path d=" M 293.2778,107.5662 L 325.6932,117.0000" style="fill: none; stroke: #000000; stroke-width: 1; stroke-opacity: 1.00; stroke-linecap: round; stroke-linejoin: round;" id="ezcGraphLine_41"/><ellipse cx="293.2778" cy="107.5662" rx="3" ry="3" style="fill: #000000; fill-opacity: 1.00; stroke: none;" id="ezcGraphCircle_42"/><ellipse cx="325.6932" cy="117" rx="3" ry="3" style="fill: #000000; fill-opacity: 1.00; stroke: none;" id="ezcGraphCircle_43"/><g id="ezcGraphTextBox_3"><path d=" M 118.4100,20.0000 L 118.4100,0.5000 L 282.0900,0.5000 L 282.0900,20.0000 L 118.4100,20.0000 z " style="fill: #ffffff; fill-opacity: 0.00; stroke: none;" id="ezcGraphPolygon_45"/><text id="ezcGraphTextBox_3_text" x="118.91" text-length="162.18px" y="16.3" style="font-size: 18px; font-family: sans-serif; fill: #1e1e1e; fill-opacity: 1.00; stroke: none;">Access statistics</text></g><g id="ezcGraphTextBox_6" style=" cursor: crosshair;" onclick="top.location = 'http://example.org/mozilla'"><path d=" M 16.5000,36.0000 L 16.5000,22.5000 L 62.5200,22.5000 L 62.5200,36.0000 L 16.5000,36.0000 z " style="fill: #ffffff; fill-opacity: 0.00; stroke: none;" id="ezcGraphPolygon_46"/><text id="ezcGraphTextBox_6_text" x="17" text-length="44.52px" y="33.2" style="font-size: 12px; font-family: sans-serif; fill: #1e1e1e; fill-opacity: 1.00; stroke: none;">Mozilla</text></g><g id="ezcGraphTextBox_8" style=" cursor: crosshair;" onclick="top.location = 'http://example.org/'"><path d=" M 16.5000,54.0000 L 16.5000,40.5000 L 68.8800,40.5000 L 68.8800,54.0000 L 16.5000,54.0000 z " style="fill: #ffffff; fill-opacity: 0.00; stroke: none;" id="ezcGraphPolygon_47"/><text id="ezcGraphTextBox_8_text" x="17" text-length="50.88px" y="51.2" style="font-size: 12px; font-family: sans-serif; fill: #1e1e1e; fill-opacity: 1.00; stroke: none;">Explorer</text></g><g id="ezcGraphTextBox_10" style=" cursor: crosshair;" onclick="top.location = 'http://example.org/'"><path d=" M 16.5000,72.0000 L 16.5000,58.5000 L 49.8000,58.5000 L 49.8000,72.0000 L 16.5000,72.0000 z " style="fill: #ffffff; fill-opacity: 0.00; stroke: none;" id="ezcGraphPolygon_48"/><text id="ezcGraphTextBox_10_text" x="17" text-length="31.8px" y="69.2" style="font-size: 12px; font-family: sans-serif; fill: #1e1e1e; fill-opacity: 1.00; stroke: none;">Opera</text></g><g id="ezcGraphTextBox_12" style=" cursor: crosshair;" onclick="top.location = 'http://example.org/'"><path d=" M 16.5000,90.0000 L 16.5000,76.5000 L 56.1600,76.5000 L 56.1600,90.0000 L 16.5000,90.0000 z " style="fill: #ffffff; fill-opacity: 0.00; stroke: none;" id="ezcGraphPolygon_49"/><text id="ezcGraphTextBox_12_text" x="17" text-length="38.16px" y="87.2" style="font-size: 12px; font-family: sans-serif; fill: #1e1e1e; fill-opacity: 1.00; stroke: none;">Safari</text></g><g id="ezcGraphTextBox_14" style=" cursor: crosshair;" onclick="top.location = 'http://example.org/'"><path d=" M 16.5000,108.0000 L 16.5000,94.5000 L 75.2400,94.5000 L 75.2400,108.0000 L 16.5000,108.0000 z " style="fill: #ffffff; fill-opacity: 0.00; stroke: none;" id="ezcGraphPolygon_50"/><text id="ezcGraphTextBox_14_text" x="17" text-length="57.24px" y="105.2" style="font-size: 12px; font-family: sans-serif; fill: #1e1e1e; fill-opacity: 1.00; stroke: none;">Konqueror</text></g><g id="ezcGraphTextBox_28" style=" cursor: crosshair;" onclick="top.location = 'http://example.org/mozilla'"><path d=" M 112.5175,192.0000 L 112.5175,182.5000 L 207.2975,182.5000 L 207.2975,192.0000 L 112.5175,192.0000 z " style="fill: #ffffff; fill-opacity: 0.00; stroke: none;" id="ezcGraphPolygon_51"/><text id="ezcGraphTextBox_28_text" x="113.0175" text-length="93.28px" y="189.8" style="font-size: 8px; font-family: sans-serif; fill: #1e1e1e; fill-opacity: 1.00; stroke: none;">Mozilla: 19113 (58.6%)</text></g><g id="ezcGraphTextBox_32" style=" cursor: crosshair;" onclick="top.location = 'http://example.org/'"><path d=" M 251.5000,35.0000 L 251.5000,25.5000 L 350.5200,25.5000 L 350.5200,35.0000 L 251.5000,35.0000 z " style="fill: #ffffff; fill-opacity: 0.00; stroke: none;" id="ezcGraphPolygon_52"/><text id="ezcGraphTextBox_32_text" x="252" text-length="97.52px" y="32.8" style="font-size: 8px; font-family: sans-serif; fill: #1e1e1e; fill-opacity: 1.00; stroke: none;">Explorer: 10917 (33.5%)</text></g><g id="ezcGraphTextBox_36" style=" cursor: crosshair;" onclick="top.location = 'http://example.org/'"><path d=" M 326.0587,90.0500 L 326.0587,72.4500 L 374.1987,72.4500 L 374.1987,90.0500 L 326.0587,90.0500 z " style="fill: #ffffff; fill-opacity: 0.00; stroke: none;" id="ezcGraphPolygon_53"/><text id="ezcGraphTextBox_36_text" x="326.5587" text-length="46.64px" y="79.75" style="font-size: 8px; font-family: sans-serif; fill: #1e1e1e; fill-opacity: 1.00; stroke: none;">Opera: 1464</text><text id="ezcGraphTextBox_36_text" x="326.5587" text-length="25.44px" y="88.55" style="font-size: 8px; font-family: sans-serif; fill: #1e1e1e; fill-opacity: 1.00; stroke: none;">(4.5%)</text></g><g id="ezcGraphTextBox_40" style=" cursor: crosshair;" onclick="top.location = 'http://example.org/'"><path d=" M 330.7401,108.0500 L 330.7401,90.4500 L 378.8801,90.4500 L 378.8801,108.0500 L 330.7401,108.0500 z " style="fill: #ffffff; fill-opacity: 0.00; stroke: none;" id="ezcGraphPolygon_54"/><text id="ezcGraphTextBox_40_text" x="331.2401" text-length="46.64px" y="97.75" style="font-size: 8px; font-family: sans-serif; fill: #1e1e1e; fill-opacity: 1.00; stroke: none;">Safari: 652</text><text id="ezcGraphTextBox_40_text" x="331.2401" text-length="25.44px" y="106.55" style="font-size: 8px; font-family: sans-serif; fill: #1e1e1e; fill-opacity: 1.00; stroke: none;">(2.0%)</text></g><g id="ezcGraphTextBox_44" style=" cursor: crosshair;" onclick="top.location = 'http://example.org/'"><path d=" M 331.1932,126.0500 L 331.1932,108.4500 L 392.0532,108.4500 L 392.0532,126.0500 L 331.1932,126.0500 z " style="fill: #ffffff; fill-opacity: 0.00; stroke: none;" id="ezcGraphPolygon_55"/><text id="ezcGraphTextBox_44_text" x="331.6932" text-length="59.36px" y="115.75" style="font-size: 8px; font-family: sans-serif; fill: #1e1e1e; fill-opacity: 1.00; stroke: none;">Konqueror: 474</text><text id="ezcGraphTextBox_44_text" x="331.6932" text-length="25.44px" y="124.55" style="font-size: 8px; font-family: sans-serif; fill: #1e1e1e; fill-opacity: 1.00; stroke: none;">(1.5%)</text></g></g></svg>
