<?xml version="1.0" encoding="UTF-8" standalone="no"?>
<!-- Created with Bouml (http://bouml.free.fr/) -->
<!DOCTYPE svg PUBLIC "-//W3C//DTD SVG 1.1//EN" "http://www.w3.org/Graphics/SVG/1.1/DTD/svg11.dtd">
<svg width="846" height="1182" version="1.1" xmlns="http://www.w3.org/2000/svg">
<g>
	<line stroke-dasharray="4,4" stroke="black" stroke-opacity="1" x1="430" y1="65" x2="126" y2="135" />
	<line stroke="black" stroke-opacity="1" x1="121" y1="137" x2="128" y2="141" />
	<line stroke="black" stroke-opacity="1" x1="121" y1="137" x2="125" y2="129" />
	<line stroke="black" stroke-opacity="1" x1="128" y1="141" x2="125" y2="129" />
</g>
<g>
	<line stroke="black" stroke-opacity="1" x1="121" y1="152" x2="126" y2="158" />
	<line stroke="black" stroke-opacity="1" x1="121" y1="152" x2="127" y2="146" />
	<line stroke-dasharray="4,4" stroke="black" stroke-opacity="1" x1="449" y1="164" x2="121" y2="152" />
</g>
<g>
	<line stroke-dasharray="4,4" stroke="black" stroke-opacity="1" x1="504" y1="190" x2="504" y2="482" />
	<line stroke="black" stroke-opacity="1" x1="504" y1="488" x2="510" y2="482" />
	<line stroke="black" stroke-opacity="1" x1="504" y1="488" x2="498" y2="482" />
	<line stroke="black" stroke-opacity="1" x1="510" y1="482" x2="498" y2="482" />
</g>
<g>
	<line stroke-dasharray="4,4" stroke="black" stroke-opacity="1" x1="492" y1="488" x2="433" y2="350" />
</g>
<g>
	<line stroke="black" stroke-opacity="1" x1="104" y1="170" x2="106" y2="178" />
	<line stroke="black" stroke-opacity="1" x1="104" y1="170" x2="112" y2="167" />
	<line stroke-dasharray="4,4" stroke="black" stroke-opacity="1" x1="433" y1="350" x2="104" y2="170" />
</g>
<g>
	<line stroke-dasharray="4,4" stroke="black" stroke-opacity="1" x1="437" y1="907" x2="132" y2="907" />
	<line stroke="black" stroke-opacity="1" x1="126" y1="907" x2="132" y2="913" />
	<line stroke="black" stroke-opacity="1" x1="126" y1="907" x2="132" y2="901" />
	<line stroke="black" stroke-opacity="1" x1="132" y1="913" x2="132" y2="901" />
</g>
<g>
	<line stroke-dasharray="4,4" stroke="black" stroke-opacity="1" x1="446" y1="524" x2="135" y2="568" />
	<line stroke="black" stroke-opacity="1" x1="130" y1="569" x2="136" y2="574" />
	<line stroke="black" stroke-opacity="1" x1="130" y1="569" x2="135" y2="562" />
	<line stroke="black" stroke-opacity="1" x1="136" y1="574" x2="135" y2="562" />
</g>
<g>
	<line stroke="black" stroke-opacity="1" x1="375" y1="449" x2="378" y2="456" />
	<line stroke="black" stroke-opacity="1" x1="375" y1="449" x2="382" y2="445" />
	<line stroke-dasharray="4,4" stroke="black" stroke-opacity="1" x1="467" y1="489" x2="375" y2="449" />
</g>
<g>
	<line stroke="black" stroke-opacity="1" x1="329" y1="748" x2="337" y2="748" />
	<line stroke="black" stroke-opacity="1" x1="329" y1="748" x2="329" y2="739" />
	<line stroke-dasharray="4,4" stroke="black" stroke-opacity="1" x1="540" y1="537" x2="329" y2="748" />
</g>
<g>
	<line stroke="black" stroke-opacity="1" x1="82" y1="170" x2="80" y2="178" />
	<line stroke="black" stroke-opacity="1" x1="82" y1="170" x2="90" y2="171" />
	<line stroke-dasharray="4,4" stroke="black" stroke-opacity="1" x1="271" y1="410" x2="82" y2="170" />
</g>
<g>
	<line stroke="black" stroke-opacity="1" x1="126" y1="955" x2="130" y2="962" />
	<line stroke="black" stroke-opacity="1" x1="126" y1="955" x2="133" y2="950" />
	<line stroke-dasharray="4,4" stroke="black" stroke-opacity="1" x1="233" y1="985" x2="126" y2="955" />
</g>
<g>
	<line stroke="black" stroke-opacity="1" x1="376" y1="981" x2="383" y2="984" />
	<line stroke="black" stroke-opacity="1" x1="376" y1="981" x2="379" y2="973" />
	<line stroke-dasharray="4,4" stroke="black" stroke-opacity="1" x1="437" y1="962" x2="376" y2="981" />
</g>
<g>
	<line stroke-dasharray="4,4" stroke="black" stroke-opacity="1" x1="460" y1="537" x2="121" y2="739" />
	<line stroke="black" stroke-opacity="1" x1="116" y1="743" x2="124" y2="745" />
	<line stroke="black" stroke-opacity="1" x1="116" y1="743" x2="118" y2="734" />
	<line stroke="black" stroke-opacity="1" x1="124" y1="745" x2="118" y2="734" />
</g>
<g>
	<line stroke-dasharray="4,4" stroke="black" stroke-opacity="1" x1="651" y1="266" x2="543" y2="193" />
	<line stroke="black" stroke-opacity="1" x1="539" y1="190" x2="540" y2="198" />
	<line stroke="black" stroke-opacity="1" x1="539" y1="190" x2="547" y2="188" />
	<line stroke="black" stroke-opacity="1" x1="540" y1="198" x2="547" y2="188" />
</g>
<g>
	<line stroke-dasharray="4,4" stroke="black" stroke-opacity="1" x1="734" y1="381" x2="734" y2="939" />
</g>
<g>
	<line stroke-dasharray="4,4" stroke="black" stroke-opacity="1" x1="734" y1="939" x2="575" y2="939" />
	<line stroke="black" stroke-opacity="1" x1="570" y1="940" x2="576" y2="945" />
	<line stroke="black" stroke-opacity="1" x1="570" y1="940" x2="575" y2="933" />
	<line stroke="black" stroke-opacity="1" x1="576" y1="945" x2="575" y2="933" />
</g>
<g>
	<line stroke-dasharray="4,4" stroke="black" stroke-opacity="1" x1="733" y1="266" x2="733" y2="48" />
</g>
<g>
	<line stroke-dasharray="4,4" stroke="black" stroke-opacity="1" x1="733" y1="48" x2="582" y2="48" />
	<line stroke="black" stroke-opacity="1" x1="577" y1="49" x2="583" y2="54" />
	<line stroke="black" stroke-opacity="1" x1="577" y1="49" x2="582" y2="42" />
	<line stroke="black" stroke-opacity="1" x1="583" y1="54" x2="582" y2="42" />
</g>
<g>
	<line stroke-dasharray="4,4" stroke="black" stroke-opacity="1" x1="796" y1="381" x2="794" y2="1121" />
</g>
<g>
	<line stroke-dasharray="4,4" stroke="black" stroke-opacity="1" x1="794" y1="1121" x2="578" y2="1121" />
	<line stroke="black" stroke-opacity="1" x1="572" y1="1121" x2="578" y2="1127" />
	<line stroke="black" stroke-opacity="1" x1="572" y1="1121" x2="578" y2="1115" />
	<line stroke="black" stroke-opacity="1" x1="578" y1="1127" x2="578" y2="1115" />
</g>
<g>
	<line stroke-dasharray="4,4" stroke="black" stroke-opacity="1" x1="421" y1="1122" x2="67" y2="1122" />
</g>
<g>
	<line stroke="black" stroke-opacity="1" x1="67" y1="981" x2="61" y2="987" />
	<line stroke="black" stroke-opacity="1" x1="67" y1="981" x2="73" y2="987" />
	<line stroke-dasharray="4,4" stroke="black" stroke-opacity="1" x1="67" y1="1122" x2="67" y2="981" />
</g>
<g>
	<line stroke="black" stroke-opacity="1" x1="629" y1="166" x2="623" y2="160" />
	<line stroke="black" stroke-opacity="1" x1="629" y1="166" x2="623" y2="172" />
	<line stroke="black" stroke-opacity="1" x1="558" y1="166" x2="629" y2="166" />
	<polygon fill="#000000" stroke="black" stroke-opacity="1" points="558,166 564,160 570,166 564,172" />
</g>
<g>
	<line stroke="black" stroke-opacity="1" x1="116" y1="788" x2="119" y2="795" />
	<line stroke="black" stroke-opacity="1" x1="116" y1="788" x2="123" y2="784" />
	<line stroke-dasharray="4,4" stroke="black" stroke-opacity="1" x1="437" y1="893" x2="116" y2="788" />
</g>
<g>
	<rect fill="#808080" stroke="none" stroke-opacity="1" x="554" y="146" width="3" height="43" />
	<rect fill="#808080" stroke="none" stroke-opacity="1" x="454" y="186" width="103" height="3" />
	<rect fill="#ffffc0" stroke="black" stroke-width="1" stroke-opacity="1" x="450" y="142" width="104" height="44" />
	<text font-family="Helvetica" font-size="7" fill="#000000" xml:space="preserve" font-weight="bold" text-anchor="middle" x="502" y="151">ezcMvcRouter</text>
	<line stroke="black" stroke-opacity="1" x1="450" y1="160" x2="554" y2="160" />
	<line stroke="black" stroke-opacity="1" x1="450" y1="168" x2="554" y2="168" />
	<text font-family="Helvetica" font-size="7" fill="#000000" xml:space="preserve" x="454" y="177">createController()</text>
</g>
<g>
	<rect fill="#808080" stroke="none" stroke-opacity="1" x="573" y="21" width="3" height="61" />
	<rect fill="#808080" stroke="none" stroke-opacity="1" x="435" y="79" width="141" height="3" />
	<rect fill="#ffffc0" stroke="black" stroke-width="1" stroke-opacity="1" x="431" y="17" width="142" height="62" />
	<text font-family="Helvetica" font-size="7" fill="#000000" xml:space="preserve" text-anchor="middle" x="502" y="26">&lt;&lt;interface&gt;&gt;</text>
	<text font-family="Helvetica" font-size="7" fill="#000000" xml:space="preserve" font-weight="bold" text-anchor="middle" x="502" y="44">ezcMvcRequestParser</text>
	<line stroke="black" stroke-opacity="1" x1="431" y1="53" x2="573" y2="53" />
	<line stroke="black" stroke-opacity="1" x1="431" y1="61" x2="573" y2="61" />
	<text font-family="Helvetica" font-size="7" fill="#000000" xml:space="preserve" x="435" y="70">createRequest()</text>
</g>
<g>
	<rect fill="#808080" stroke="none" stroke-opacity="1" x="557" y="493" width="3" height="43" />
	<rect fill="#808080" stroke="none" stroke-opacity="1" x="451" y="533" width="109" height="3" />
	<rect fill="#ffffc0" stroke="black" stroke-width="1" stroke-opacity="1" x="447" y="489" width="110" height="44" />
	<text font-family="Helvetica" font-size="7" fill="#000000" xml:space="preserve" font-weight="bold" text-anchor="middle" x="502" y="498">ezcMvcController</text>
	<line stroke="black" stroke-opacity="1" x1="447" y1="507" x2="557" y2="507" />
	<line stroke="black" stroke-opacity="1" x1="447" y1="515" x2="557" y2="515" />
	<text font-family="Helvetica" font-size="7" fill="#000000" xml:space="preserve" x="451" y="524">createResult()</text>
</g>
<g>
	<rect fill="#808080" stroke="none" stroke-opacity="1" x="566" y="889" width="3" height="107" />
	<rect fill="#808080" stroke="none" stroke-opacity="1" x="442" y="993" width="127" height="3" />
	<rect fill="#ffffc0" stroke="black" stroke-width="1" stroke-opacity="1" x="438" y="885" width="128" height="108" />
	<text font-family="Helvetica" font-size="7" fill="#000000" xml:space="preserve" font-weight="bold" text-anchor="middle" x="502" y="894">ezcMvcViewHandler</text>
	<line stroke="black" stroke-opacity="1" x1="438" y1="903" x2="566" y2="903" />
	<line stroke="black" stroke-opacity="1" x1="438" y1="911" x2="566" y2="911" />
	<text font-family="Helvetica" font-size="7" fill="#000000" xml:space="preserve" x="442" y="920">createResponse()</text>
	<text font-family="Helvetica" font-size="7" fill="#000000" xml:space="preserve" x="442" y="936">__construct()</text>
	<text font-family="Helvetica" font-size="7" fill="#000000" xml:space="preserve" x="442" y="952">runFilters()</text>
	<text font-family="Helvetica" font-size="7" fill="#000000" xml:space="preserve" x="442" y="968">handleResponse()</text>
	<text font-family="Helvetica" font-size="7" fill="#000000" xml:space="preserve" x="442" y="984">handle()</text>
</g>
<g>
	<rect fill="#808080" stroke="none" stroke-opacity="1" x="122" y="903" width="3" height="77" />
	<rect fill="#808080" stroke="none" stroke-opacity="1" x="14" y="977" width="111" height="3" />
	<rect fill="#ffffc0" stroke="black" stroke-width="1" stroke-opacity="1" x="10" y="899" width="112" height="78" />
	<text font-family="Helvetica" font-size="7" fill="#000000" xml:space="preserve" text-anchor="middle" x="66" y="908">&lt;&lt;struct&gt;&gt;</text>
	<text font-family="Helvetica" font-size="7" fill="#000000" xml:space="preserve" font-weight="bold" text-anchor="middle" x="66" y="926">ezcMvcResponse</text>
	<line stroke="black" stroke-opacity="1" x1="10" y1="935" x2="122" y2="935" />
	<text font-family="Helvetica" font-size="7" fill="#000000" xml:space="preserve" x="14" y="944">body</text>
	<text font-family="Helvetica" font-size="7" fill="#000000" xml:space="preserve" x="14" y="960">headers</text>
	<line stroke="black" stroke-opacity="1" x1="10" y1="969" x2="122" y2="969" />
</g>
<g>
	<rect fill="#808080" stroke="none" stroke-opacity="1" x="371" y="415" width="3" height="43" />
	<rect fill="#808080" stroke="none" stroke-opacity="1" x="243" y="455" width="131" height="3" />
	<rect fill="#ffffc0" stroke="black" stroke-width="1" stroke-opacity="1" x="239" y="411" width="132" height="44" />
	<text font-family="Helvetica" font-size="7" fill="#000000" xml:space="preserve" font-weight="bold" text-anchor="middle" x="305" y="420">ezcMvcRequestFilter</text>
	<line stroke="black" stroke-opacity="1" x1="239" y1="429" x2="371" y2="429" />
	<line stroke="black" stroke-opacity="1" x1="239" y1="437" x2="371" y2="437" />
	<text font-family="Helvetica" font-size="7" fill="#000000" xml:space="preserve" x="243" y="446">filterRequest()</text>
</g>
	<text font-family="Helvetica" font-size="7" fill="#000000" xml:space="preserve" x="388" y="726">Controller can return a result object, or a redirection</text>
	<text font-family="Helvetica" font-size="7" fill="#000000" xml:space="preserve" x="388" y="741">object in the case of internal redirection</text>
	<text font-family="Helvetica" font-size="7" fill="#000000" xml:space="preserve" x="80" y="714">Result has a Redirection in the</text>
	<text font-family="Helvetica" font-size="7" fill="#000000" xml:space="preserve" x="80" y="729">case of an external redirection</text>
	<text font-family="Helvetica" font-size="7" fill="#000000" xml:space="preserve" x="71" y="534">Redirection has a request, in the case</text>
	<text font-family="Helvetica" font-size="7" fill="#000000" xml:space="preserve" x="71" y="549">of internal redirection</text>
	<text font-family="Helvetica" font-size="7" fill="#000000" xml:space="preserve" x="223" y="957">View handler will run its filters</text>
	<text font-family="Helvetica" font-size="7" fill="#000000" xml:space="preserve" x="223" y="972">before returning the response</text>
	<text font-family="Helvetica" font-size="7" fill="#000000" xml:space="preserve" x="544" y="557">Controller run the result filter</text>
	<text font-family="Helvetica" font-size="7" fill="#000000" xml:space="preserve" x="544" y="572">before returning the result</text>
<g>
	<rect fill="#808080" stroke="none" stroke-opacity="1" x="830" y="271" width="3" height="109" />
	<rect fill="#808080" stroke="none" stroke-opacity="1" x="638" y="377" width="195" height="3" />
	<rect fill="#ffffc0" stroke="black" stroke-width="1" stroke-opacity="1" x="634" y="267" width="196" height="110" />
	<text font-family="Helvetica" font-size="7" fill="#000000" xml:space="preserve" text-anchor="middle" x="732" y="276">&lt;&lt;interface&gt;&gt;</text>
	<text font-family="Helvetica" font-size="7" fill="#000000" xml:space="preserve" font-weight="bold" text-anchor="middle" x="732" y="294">ezcMvcDispatcherConfiguration</text>
	<line stroke="black" stroke-opacity="1" x1="634" y1="303" x2="830" y2="303" />
	<line stroke="black" stroke-opacity="1" x1="634" y1="311" x2="830" y2="311" />
	<text font-family="Helvetica" font-size="7" fill="#000000" xml:space="preserve" x="638" y="320">createRequestParser()</text>
	<text font-family="Helvetica" font-size="7" fill="#000000" xml:space="preserve" x="638" y="336">createRouter()</text>
	<text font-family="Helvetica" font-size="7" fill="#000000" xml:space="preserve" x="638" y="352">createView()</text>
	<text font-family="Helvetica" font-size="7" fill="#000000" xml:space="preserve" x="638" y="368">createResponseWriter()</text>
</g>
<g>
	<rect fill="#808080" stroke="none" stroke-opacity="1" x="568" y="1078" width="3" height="91" />
	<rect fill="#808080" stroke="none" stroke-opacity="1" x="426" y="1166" width="145" height="3" />
	<rect fill="#ffffc0" stroke="black" stroke-width="1" stroke-opacity="1" x="422" y="1074" width="146" height="92" />
	<text font-family="Helvetica" font-size="7" fill="#000000" xml:space="preserve" font-weight="bold" text-anchor="middle" x="495" y="1083">ezcMvcResponseWriter</text>
	<line stroke="black" stroke-opacity="1" x1="422" y1="1092" x2="568" y2="1092" />
	<line stroke="black" stroke-opacity="1" x1="422" y1="1100" x2="568" y2="1100" />
	<text font-family="Helvetica" font-size="7" fill="#000000" xml:space="preserve" x="426" y="1109">__construct()</text>
	<text font-family="Helvetica" font-size="7" fill="#000000" xml:space="preserve" x="426" y="1125">handleResponse()</text>
	<text font-family="Helvetica" font-size="7" fill="#000000" xml:space="preserve" x="426" y="1141">addResponseFilter()</text>
	<text font-family="Helvetica" font-size="7" fill="#000000" xml:space="preserve" x="426" y="1157">runResponseFilters()</text>
</g>
<g>
	<rect fill="#808080" stroke="none" stroke-opacity="1" x="718" y="129" width="3" height="77" />
	<rect fill="#808080" stroke="none" stroke-opacity="1" x="634" y="203" width="87" height="3" />
	<rect fill="#ffffc0" stroke="black" stroke-width="1" stroke-opacity="1" x="630" y="125" width="88" height="78" />
	<text font-family="Helvetica" font-size="7" fill="#000000" xml:space="preserve" text-anchor="middle" x="674" y="134">&lt;&lt;interface&gt;&gt;</text>
	<text font-family="Helvetica" font-size="7" fill="#000000" xml:space="preserve" font-weight="bold" text-anchor="middle" x="674" y="152">ezcMvcRoute</text>
	<line stroke="black" stroke-opacity="1" x1="630" y1="161" x2="718" y2="161" />
	<line stroke="black" stroke-opacity="1" x1="630" y1="169" x2="718" y2="169" />
	<text font-family="Helvetica" font-size="7" fill="#000000" xml:space="preserve" x="634" y="178">matches()</text>
	<text font-family="Helvetica" font-size="7" fill="#000000" xml:space="preserve" x="634" y="194">prefix()</text>
</g>
<g>
	<line stroke="black" stroke-opacity="1" x1="70" y1="643" x2="64" y2="649" />
	<line stroke="black" stroke-opacity="1" x1="70" y1="643" x2="76" y2="649" />
	<line stroke="black" stroke-opacity="1" x1="70" y1="740" x2="70" y2="643" />
	<polygon fill="#000000" stroke="black" stroke-opacity="1" points="70,740 64,734 70,728 76,734" />
</g>
<g>
	<line stroke="black" stroke-opacity="1" x1="68" y1="170" x2="62" y2="176" />
	<line stroke="black" stroke-opacity="1" x1="68" y1="170" x2="74" y2="176" />
	<line stroke="black" stroke-opacity="1" x1="68" y1="560" x2="68" y2="170" />
	<polygon fill="#000000" stroke="black" stroke-opacity="1" points="68,560 62,554 68,548 74,554" />
</g>
<g>
	<line stroke="black" stroke-opacity="1" x1="116" y1="773" x2="122" y2="779" />
	<line stroke="black" stroke-opacity="1" x1="116" y1="773" x2="122" y2="767" />
	<line stroke-dasharray="4,4" stroke="black" stroke-opacity="1" x1="243" y1="773" x2="116" y2="773" />
</g>
<g>
	<rect fill="#808080" stroke="none" stroke-opacity="1" x="117" y="136" width="3" height="33" />
	<rect fill="#808080" stroke="none" stroke-opacity="1" x="19" y="166" width="101" height="3" />
	<rect fill="#ffffc0" stroke="black" stroke-width="1" stroke-opacity="1" x="15" y="132" width="102" height="34" />
	<text font-family="Helvetica" font-size="7" fill="#000000" xml:space="preserve" font-weight="bold" text-anchor="middle" x="66" y="141">ezcMvcRequest</text>
	<line stroke="black" stroke-opacity="1" x1="15" y1="150" x2="117" y2="150" />
	<line stroke="black" stroke-opacity="1" x1="15" y1="158" x2="117" y2="158" />
</g>
<g>
	<polygon fill="#c0ffff" stroke="black" stroke-opacity="1" points="6,4 323,4 323,14 333,14 333,84 6,84 6,4" />
	<line stroke="black" stroke-opacity="1" x1="323" y1="4" x2="333" y2="14" />
	<text font-family="Helvetica" font-size="7" fill="#000000" xml:space="preserve" x="16" y="28">Dispatcher internals class view</text>
	<text font-family="Helvetica" font-size="7" fill="#000000" xml:space="preserve" x="16" y="43"></text>
	<text font-family="Helvetica" font-size="7" fill="#000000" xml:space="preserve" x="16" y="58">The dispatcher is responsible of encapsulating this</text>
	<text font-family="Helvetica" font-size="7" fill="#000000" xml:space="preserve" x="16" y="73">processes.</text>
</g>
<g>
	<rect fill="#808080" stroke="none" stroke-opacity="1" x="126" y="565" width="3" height="77" />
	<rect fill="#808080" stroke="none" stroke-opacity="1" x="10" y="639" width="119" height="3" />
	<rect fill="#ffffc0" stroke="black" stroke-width="1" stroke-opacity="1" x="6" y="561" width="120" height="78" />
	<text font-family="Helvetica" font-size="7" fill="#000000" xml:space="preserve" text-anchor="middle" x="66" y="570">&lt;&lt;struct&gt;&gt;</text>
	<text font-family="Helvetica" font-size="7" fill="#000000" xml:space="preserve" font-weight="bold" text-anchor="middle" x="66" y="588">ezcMvcRedirection</text>
	<line stroke="black" stroke-opacity="1" x1="6" y1="597" x2="126" y2="597" />
	<text font-family="Helvetica" font-size="7" fill="#000000" xml:space="preserve" x="10" y="606">request</text>
	<text font-family="Helvetica" font-size="7" fill="#000000" xml:space="preserve" x="10" y="622">where</text>
	<line stroke="black" stroke-opacity="1" x1="6" y1="631" x2="126" y2="631" />
</g>
<g>
	<rect fill="#808080" stroke="none" stroke-opacity="1" x="366" y="753" width="3" height="43" />
	<rect fill="#808080" stroke="none" stroke-opacity="1" x="248" y="793" width="121" height="3" />
	<rect fill="#ffffc0" stroke="black" stroke-width="1" stroke-opacity="1" x="244" y="749" width="122" height="44" />
	<text font-family="Helvetica" font-size="7" fill="#000000" xml:space="preserve" font-weight="bold" text-anchor="middle" x="305" y="758">ezcMvcResultFilter</text>
	<line stroke="black" stroke-opacity="1" x1="244" y1="767" x2="366" y2="767" />
	<line stroke="black" stroke-opacity="1" x1="244" y1="775" x2="366" y2="775" />
	<text font-family="Helvetica" font-size="7" fill="#000000" xml:space="preserve" x="248" y="784">filterResult()</text>
</g>
<g>
	<rect fill="#808080" stroke="none" stroke-opacity="1" x="112" y="745" width="3" height="59" />
	<rect fill="#808080" stroke="none" stroke-opacity="1" x="24" y="801" width="91" height="3" />
	<rect fill="#ffffc0" stroke="black" stroke-width="1" stroke-opacity="1" x="20" y="741" width="92" height="60" />
	<text font-family="Helvetica" font-size="7" fill="#000000" xml:space="preserve" font-weight="bold" text-anchor="middle" x="66" y="750">ezcMvcResult</text>
	<line stroke="black" stroke-opacity="1" x1="20" y1="759" x2="112" y2="759" />
	<text font-family="Helvetica" font-size="7" fill="#000000" xml:space="preserve" x="24" y="768">cookie</text>
	<text font-family="Helvetica" font-size="7" fill="#000000" xml:space="preserve" x="24" y="784">variables</text>
	<line stroke="black" stroke-opacity="1" x1="20" y1="793" x2="112" y2="793" />
</g>
	<text font-family="Helvetica" font-size="7" fill="#000000" xml:space="preserve" x="275" y="474">Controller runs the request filters at</text>
	<text font-family="Helvetica" font-size="7" fill="#000000" xml:space="preserve" x="275" y="489">the beginning</text>
	<text font-family="Helvetica" font-size="7" fill="#000000" xml:space="preserve" x="175" y="1117">The response writer makes the final output</text>
<g>
	<rect fill="#808080" stroke="none" stroke-opacity="1" x="376" y="986" width="3" height="43" />
	<rect fill="#808080" stroke="none" stroke-opacity="1" x="238" y="1026" width="141" height="3" />
	<rect fill="#ffffc0" stroke="black" stroke-width="1" stroke-opacity="1" x="234" y="982" width="142" height="44" />
	<text font-family="Helvetica" font-size="7" fill="#000000" xml:space="preserve" font-weight="bold" text-anchor="middle" x="305" y="991">ezcMvcResponseFilter</text>
	<line stroke="black" stroke-opacity="1" x1="234" y1="1000" x2="376" y2="1000" />
	<line stroke="black" stroke-opacity="1" x1="234" y1="1008" x2="376" y2="1008" />
	<text font-family="Helvetica" font-size="7" fill="#000000" xml:space="preserve" x="238" y="1017">filterResponse()</text>
</g>
</svg>
